<?xml version="1.0" encoding="utf-8"?>
<!-- Generator: Adobe Illustrator 16.0.0, SVG Export Plug-In . SVG Version: 6.00 Build 0)  -->
<!DOCTYPE svg PUBLIC "-//W3C//DTD SVG 1.1//EN" "http://www.w3.org/Graphics/SVG/1.1/DTD/svg11.dtd">
<svg version="1.1" id="Capa_1" xmlns="http://www.w3.org/2000/svg" xmlns:xlink="http://www.w3.org/1999/xlink" x="0px" y="0px"
	 width="60px" height="60px" viewBox="185.059 185.059 60 60" enable-background="new 185.059 185.059 60 60" xml:space="preserve">
<g>
	<path fill="#0077B5" d="M240.628,185.059h-51.136c-2.449,0-4.434,1.924-4.434,4.299v51.4c0,2.375,1.985,4.301,4.434,4.301h51.136
		c2.448,0,4.431-1.927,4.431-4.301v-51.4C245.059,186.983,243.076,185.059,240.628,185.059z"/>
	<rect x="194.184" y="208.194" fill="#FFFFFF" width="9.065" height="27.089"/>
	<path fill="#FFFFFF" d="M198.717,204.493h-0.061c-3.04,0-5.011-2.079-5.011-4.682c0-2.655,2.029-4.678,5.129-4.678
		c3.1,0,5.008,2.022,5.068,4.678C203.842,202.415,201.875,204.493,198.717,204.493z"/>
	<path fill="#FFFFFF" d="M235.928,235.283h-9.063V220.79c0-3.643-1.313-6.127-4.591-6.127c-2.507,0-3.995,1.676-4.648,3.295
		c-0.243,0.578-0.303,1.387-0.303,2.194v15.131h-9.061c0,0,0.118-24.549,0-27.089h9.062v3.84c1.203-1.845,3.354-4.478,8.166-4.478
		c5.965,0,10.438,3.87,10.438,12.195V235.283L235.928,235.283z"/>
	<path fill="#0077B5" d="M217.266,212.12c0.016-0.025,0.037-0.056,0.059-0.085v0.085H217.266z"/>
</g>
</svg>
